<?xml version="1.0" encoding="UTF-8"?>
<svg version="1.1" xmlns="http://www.w3.org/2000/svg" width="369" height="94">
<path d="M0 0 C0.33 10.89 0.66 21.78 1 33 C4.63 31.35 8.26 29.7 12 28 C21.10075258 25.75981475 27.90775164 28.95387582 36 33 C36.33 22.11 36.66 11.22 37 0 C45.69568712 1.44928119 50.91105428 6.09593567 56.4609375 12.82421875 C61.78292927 20.34794823 62.44272972 27.79668304 62.43359375 36.77734375 C62.65915459 40.19258885 62.65915459 40.19258885 65.53515625 41.94140625 C66.75525391 42.46541016 66.75525391 42.46541016 68 43 C67.43628586 46.26954202 66.50037734 47.82575883 64 50 C65.98 50.495 65.98 50.495 68 51 C66.87548273 53.9719385 65.77706209 56.33440687 64 59 C65.98 59.495 65.98 59.495 68 60 C67.8125 61.8125 67.8125 61.8125 67 64 C63.77632402 66.27694586 60.52332236 67.57376957 56.78442383 68.78735352 C49.28052753 71.2614003 42.86782875 74.65663577 36.3125 79.0625 C35.55880127 79.569021 34.80510254 80.07554199 34.02856445 80.59741211 C28.53951793 84.40056814 23.86876839 88.5022765 20 94 C18.25 93.875 18.25 93.875 16 93 C15.47148438 92.11699219 14.94296875 91.23398438 14.3984375 90.32421875 C11.6351172 86.0123091 7.6247126 83.65271518 3.375 80.9375 C2.56466309 80.41091797 1.75432617 79.88433594 0.91943359 79.34179688 C-7.59343366 73.87253145 -15.70336735 69.85924247 -25.43359375 66.9921875 C-28.03958304 65.98469697 -29.35571401 65.24068803 -31 63 C-31 62.01 -31 61.02 -31 60 C-29.02 59.505 -29.02 59.505 -27 59 C-28.0209375 57.6078125 -28.0209375 57.6078125 -29.0625 56.1875 C-29.701875 55.135625 -30.34125 54.08375 -31 53 C-30.67 52.01 -30.34 51.02 -30 50 C-29.01 50 -28.02 50 -27 50 C-27.66 49.401875 -28.32 48.80375 -29 48.1875 C-31 46 -31 46 -31 43 C-30.18660156 42.58878906 -29.37320312 42.17757812 -28.53515625 41.75390625 C-27.69855469 41.17511719 -26.86195312 40.59632812 -26 40 C-25.32225671 36.69237267 -25.32225671 36.69237267 -25.4375 32.9375 C-25.15589669 23.08256724 -22.73879913 16.05059907 -15.9375 8.82421875 C-6.56531049 0 -6.56531049 0 0 0 Z " fill="#FFFFFF" transform="translate(31,0)"/>
<path d="M0 0 C4.02009457 -0.07455949 8.03991733 -0.12879358 12.06054688 -0.16479492 C13.42617816 -0.17981428 14.79176176 -0.20023608 16.15722656 -0.22631836 C18.12803905 -0.26300137 20.09921408 -0.27818551 22.0703125 -0.29296875 C23.25383301 -0.3086792 24.43735352 -0.32438965 25.65673828 -0.34057617 C30.76720876 0.18002455 34.00373475 2.15534033 37.875 5.4375 C40.85402581 9.28420323 40.63122429 13.45943051 40.421875 18.15234375 C39.85105716 22.00536417 38.67448611 24.18094707 36 27 C33.25 28.875 33.25 28.875 31 30 C32.74126321 33.87478901 35.17940469 37.23691787 37.625 40.6875 C42 46.86752301 42 46.86752301 42 48 C37.6984683 48.99777797 34.26031546 49.28213285 30 48 C27.32316092 45.1932721 25.57255731 41.79470013 23.67285156 38.43896484 C21.24428516 34.23113528 21.24428516 34.23113528 17.15625 31.78125 C14.10711834 31.45877466 14.10711834 31.45877466 10 32 C10 37.28 10 42.56 10 48 C6.7 48 3.4 48 0 48 C-0.02886984 44.02084841 -0.04675406 40.04172347 -0.0625 36.0625 C-0.07087891 34.92619141 -0.07925781 33.78988281 -0.08789062 32.61914062 C-0.09111328 31.53955078 -0.09433594 30.45996094 -0.09765625 29.34765625 C-0.10289307 28.34742432 -0.10812988 27.34719238 -0.11352539 26.31665039 C0 24 0 24 1 23 C2.80624118 22.89074168 4.61634837 22.8441499 6.42578125 22.82421875 C8.08577148 22.78844727 8.08577148 22.78844727 9.77929688 22.75195312 C12.12286529 22.70920146 14.46667075 22.67783358 16.81054688 22.65820312 C17.92107422 22.63048828 19.03160156 22.60277344 20.17578125 22.57421875 C21.19583252 22.55963623 22.21588379 22.54505371 23.2668457 22.5300293 C26.70491261 21.86329922 27.93815402 20.79748727 30 18 C29.85387105 14.30567489 29.85387105 14.30567489 29 11 C25.309177 9.32101428 22.30500408 8.71566858 18.26171875 8.5859375 C17.19501953 8.54726563 16.12832031 8.50859375 15.02929688 8.46875 C13.92650391 8.4378125 12.82371094 8.406875 11.6875 8.375 C10.56537109 8.33632813 9.44324219 8.29765625 8.28710938 8.2578125 C5.52490148 8.16377989 2.762696 8.07812659 0 8 C0 5.36 0 2.72 0 0 Z " fill="#FFFFFF" transform="translate(171,23)"/>
<path d="M0 0 C4.16642697 -0.11703447 8.3324259 -0.18753101 12.5 -0.25 C13.67304688 -0.28351562 14.84609375 -0.31703125 16.0546875 -0.3515625 C23.2155148 -0.43202123 27.96508609 0.02891278 34 4 C37.92249823 8.43475205 38.58572743 12.80643748 38.3203125 18.63671875 C37.69308935 23.26440177 35.99153364 26.03526457 32.6875 29.25 C25.46618916 33.95224892 18.34180813 33.15739261 10 33 C10 37.95 10 42.9 10 48 C6.7 48 3.4 48 0 48 C0 40.41 0 32.82 0 25 C9.0625 24.625 9.0625 24.625 11.87524414 24.52197266 C16.8720146 24.28598884 21.32335536 23.84119868 26 22 C27.58178489 18.58334464 28.33814668 16.39015858 27.4375 12.6875 C25.06669552 9.9043817 22.06485408 9.13606295 18.50463867 8.68115234 C17.6510376 8.64973145 16.79743652 8.61831055 15.91796875 8.5859375 C14.98662109 8.54726563 14.05527344 8.50859375 13.09570312 8.46875 C12.13599609 8.4378125 11.17628906 8.406875 10.1875 8.375 C9.20845703 8.33632813 8.22941406 8.29765625 7.22070312 8.2578125 C4.81398626 8.16389184 2.40726988 8.07821799 0 8 C0 5.36 0 2.72 0 0 Z " fill="#FFFFFF" transform="translate(278,23)"/>
<path d="M0 0 C2.97 0 5.94 0 9 0 C9.33 6.6 9.66 13.2 10 20 C11.30453125 18.55625 12.6090625 17.1125 13.953125 15.625 C15.71709163 13.74843975 17.48281008 11.87352513 19.25 10 C20.10335937 9.04609375 20.95671875 8.0921875 21.8359375 7.109375 C28.34506674 0.30879221 28.34506674 0.30879221 33.34960938 -0.625 C36.30393108 -0.625 39.08372341 -0.45626231 42 0 C40.47396585 3.21630141 38.90199229 5.28769299 36.3125 7.75 C33.62527999 10.31336017 31.14162019 12.96757693 28.72265625 15.78125 C26.27918201 18.60581055 23.75786769 21.2663236 21.0703125 23.859375 C12.20429828 31.97769565 12.20429828 31.97769565 8.5625 43 C8.63412891 45.80008259 8.63412891 45.80008259 9 48 C6.03 48 3.06 48 0 48 C0 32.16 0 16.32 0 0 Z " fill="#FFFFFF" transform="translate(119,23)"/>
<path d="M0 0 C3.84522163 -0.66968572 7.17470476 -0.86685351 11 0 C14.33248975 3.03886834 16.29211357 6.69137817 18.4375 10.625 C19.02208984 11.62402344 19.60667969 12.62304688 20.20898438 13.65234375 C21.33880504 15.58442666 22.44857686 17.52840654 23.53564453 19.48486328 C25.02326294 22.17576167 25.02326294 22.17576167 27.39453125 25.03125 C29.84084451 29.55484629 29.42786335 33.82641722 29.25 38.875 C29.23195312 39.84953125 29.21390625 40.8240625 29.1953125 41.828125 C29.14842913 44.21917673 29.07669352 46.60971873 29 49 C25.7 49 22.4 49 19 49 C19.10183594 47.82308594 19.20367187 46.64617187 19.30859375 45.43359375 C19.95004813 29.88869691 13.6329485 20.55839544 4.63769531 8.32910156 C2.74783448 5.64137461 1.31557487 3.00272432 0 0 Z " fill="#FFFFFF" transform="translate(221,23)"/>
<path d="M0 0 C12.87 0 25.74 0 39 0 C39 2.97 39 5.94 39 9 C26.13 9 13.26 9 0 9 C0 6.03 0 3.06 0 0 Z " fill="#FFFFFF" transform="translate(330,23)"/>
<path d="M0 0 C2.97 0 5.94 0 9 0 C9 10.89 9 21.78 9 33 C6.03 33 3.06 33 0 33 C0 22.11 0 11.22 0 0 Z " fill="#FFFFFF" transform="translate(345,38)"/>
<path d="M0 0 C3.68196291 0.54832433 4.98948993 1.77266236 7.19921875 4.7109375 C7.76833984 5.46117187 8.33746094 6.21140625 8.92382812 6.984375 C9.7968457 8.16773438 9.7968457 8.16773438 10.6875 9.375 C11.28111328 10.15617187 11.87472656 10.93734375 12.48632812 11.7421875 C16.85226739 17.55680216 16.85226739 17.55680216 18 21 C14.1929062 21.56686507 10.79129603 21.74329356 7 21 C3.69186551 18.43834391 1.3923965 15.40803653 -1 12 C-1.85464844 10.92492187 -1.85464844 10.92492187 -2.7265625 9.828125 C-4 8 -4 8 -3.875 6 C-2.87137069 3.70599014 -1.58559997 1.93029562 0 0 Z " fill="#FFFFFF" transform="translate(143,50)"/>
<path d="M0 0 C2.5145065 0.03223726 4.73997757 0.25173545 7.1796875 0.84765625 C5.20841269 6.14022692 2.30650373 10.48836832 -0.8203125 15.16015625 C-1.64015625 16.4140918 -1.64015625 16.4140918 -2.4765625 17.69335938 C-3.0025 18.48291016 -3.5284375 19.27246094 -4.0703125 20.0859375 C-4.54984375 20.80821533 -5.029375 21.53049316 -5.5234375 22.2746582 C-5.95140625 22.79374756 -6.379375 23.31283691 -6.8203125 23.84765625 C-7.4803125 23.84765625 -8.1403125 23.84765625 -8.8203125 23.84765625 C-12.89007994 18.73137718 -12.89007994 18.73137718 -12.6796875 16.06640625 C-10.43056789 10.25958835 -6.24542388 1.87708723 0 0 Z " fill="#FFFFFF" transform="translate(260.8203125,22.15234375)"/>
</svg>
